<?xml version="1.0" encoding="utf-8"?>
<!-- Generator: Adobe Illustrator 26.2.1, SVG Export Plug-In . SVG Version: 6.00 Build 0)  -->
<svg version="1.1" id="Layer_1" xmlns="http://www.w3.org/2000/svg" xmlns:xlink="http://www.w3.org/1999/xlink" x="0px" y="0px"
	 viewBox="0 0 674.2 334.4" style="enable-background:new 0 0 674.2 334.4;" xml:space="preserve">
<style type="text/css">
	.st0{fill:#FFFFFF;stroke:#231F20;stroke-miterlimit:10;}
	.st1{fill:#343F96;stroke:#000000;stroke-miterlimit:10;}
	.st2{fill:#F34646;stroke:#000000;stroke-miterlimit:10;}
	.st3{fill:#E8B348;stroke:#000000;stroke-miterlimit:10;}
</style>
<circle class="st0" cx="113.4" cy="87.6" r="12.2"/>
<circle class="st0" cx="145.7" cy="87.6" r="12.2"/>
<circle class="st0" cx="178.1" cy="87.6" r="12.2"/>
<circle class="st0" cx="210.4" cy="87.6" r="12.2"/>
<circle class="st0" cx="242.7" cy="87.6" r="12.2"/>
<circle class="st0" cx="275.1" cy="87.6" r="12.2"/>
<circle class="st0" cx="307.4" cy="87.6" r="12.2"/>
<circle class="st0" cx="536.2" cy="87.6" r="12.2"/>
<circle class="st0" cx="373.5" cy="87.6" r="12.2"/>
<circle class="st0" cx="405.9" cy="87.6" r="12.2"/>
<circle class="st0" cx="112.9" cy="118.8" r="12.2"/>
<circle class="st0" cx="145.3" cy="118.8" r="12.2"/>
<circle class="st0" cx="177.6" cy="118.8" r="12.2"/>
<circle class="st0" cx="209.9" cy="118.8" r="12.2"/>
<circle class="st0" cx="242.3" cy="118.8" r="12.2"/>
<circle class="st0" cx="274.6" cy="118.8" r="12.2"/>
<circle class="st0" cx="307" cy="118.8" r="12.2"/>
<circle class="st0" cx="535.7" cy="118.8" r="12.2"/>
<circle class="st0" cx="373.1" cy="118.8" r="12.2"/>
<circle class="st0" cx="405.4" cy="118.8" r="12.2"/>
<circle class="st0" cx="112.9" cy="149.9" r="12.2"/>
<circle class="st0" cx="145.3" cy="149.9" r="12.2"/>
<circle class="st0" cx="177.6" cy="149.9" r="12.2"/>
<circle class="st0" cx="209.9" cy="149.9" r="12.2"/>
<circle class="st0" cx="242.3" cy="149.9" r="12.2"/>
<circle class="st0" cx="274.6" cy="149.9" r="12.2"/>
<circle class="st0" cx="307" cy="149.9" r="12.2"/>
<circle class="st0" cx="537" cy="149.9" r="12.2"/>
<circle class="st0" cx="374.4" cy="149.9" r="12.2"/>
<circle class="st0" cx="406.7" cy="149.9" r="12.2"/>
<circle class="st0" cx="112.9" cy="181.1" r="12.2"/>
<circle class="st0" cx="145.3" cy="181.1" r="12.2"/>
<circle class="st0" cx="177.6" cy="181.1" r="12.2"/>
<circle class="st0" cx="209.9" cy="181.1" r="12.2"/>
<circle class="st0" cx="242.3" cy="181.1" r="12.2"/>
<circle class="st0" cx="274.6" cy="181.1" r="12.2"/>
<circle class="st0" cx="307" cy="181.1" r="12.2"/>
<circle class="st0" cx="537" cy="181.1" r="12.2"/>
<circle class="st0" cx="374.4" cy="181.1" r="12.2"/>
<circle class="st0" cx="406.7" cy="181.1" r="12.2"/>
<circle class="st0" cx="112.9" cy="212.2" r="12.2"/>
<circle class="st0" cx="145.3" cy="212.2" r="12.2"/>
<circle class="st0" cx="177.6" cy="212.2" r="12.2"/>
<circle class="st0" cx="209.9" cy="212.2" r="12.2"/>
<circle class="st0" cx="242.3" cy="212.2" r="12.2"/>
<circle class="st0" cx="274.6" cy="212.2" r="12.2"/>
<circle class="st0" cx="307" cy="212.2" r="12.2"/>
<circle class="st0" cx="537" cy="212.2" r="12.2"/>
<circle class="st0" cx="374.4" cy="212.2" r="12.2"/>
<circle class="st0" cx="406.7" cy="212.2" r="12.2"/>
<circle class="st0" cx="112.9" cy="243.4" r="12.2"/>
<circle class="st0" cx="145.3" cy="243.4" r="12.2"/>
<circle class="st0" cx="177.6" cy="243.4" r="12.2"/>
<circle class="st0" cx="209.9" cy="243.4" r="12.2"/>
<circle class="st0" cx="242.3" cy="243.4" r="12.2"/>
<circle class="st0" cx="274.6" cy="243.4" r="12.2"/>
<circle class="st0" cx="307" cy="243.4" r="12.2"/>
<circle class="st0" cx="537" cy="243.4" r="12.2"/>
<circle class="st0" cx="374.4" cy="243.4" r="12.2"/>
<circle class="st0" cx="406.7" cy="243.4" r="12.2"/>
<circle class="st0" cx="112.9" cy="274.5" r="12.2"/>
<circle class="st0" cx="145.3" cy="274.5" r="12.2"/>
<circle class="st0" cx="177.6" cy="274.5" r="12.2"/>
<circle class="st0" cx="209.9" cy="274.5" r="12.2"/>
<circle class="st0" cx="242.3" cy="274.5" r="12.2"/>
<circle class="st0" cx="274.6" cy="274.5" r="12.2"/>
<circle class="st0" cx="307" cy="274.5" r="12.2"/>
<circle class="st0" cx="537" cy="274.5" r="12.2"/>
<circle class="st0" cx="374.4" cy="274.5" r="12.2"/>
<circle class="st0" cx="406.7" cy="274.5" r="12.2"/>
<circle class="st0" cx="438.2" cy="87.6" r="12.2"/>
<circle class="st0" cx="470.5" cy="87.6" r="12.2"/>
<circle class="st0" cx="502.9" cy="87.6" r="12.2"/>
<circle class="st0" cx="565.1" cy="87.6" r="12.2"/>
<circle class="st0" cx="340.2" cy="87.6" r="12.2"/>
<circle class="st0" cx="437.7" cy="118.8" r="12.2"/>
<circle class="st0" cx="470.1" cy="118.8" r="12.2"/>
<circle class="st0" cx="502.4" cy="118.8" r="12.2"/>
<circle class="st0" cx="564.2" cy="118.8" r="12.2"/>
<circle class="st0" cx="339.8" cy="118.8" r="12.2"/>
<circle class="st0" cx="440" cy="149.9" r="12.2"/>
<circle class="st0" cx="472.3" cy="149.9" r="12.2"/>
<circle class="st0" cx="504.7" cy="149.9" r="12.2"/>
<circle class="st0" cx="566.4" cy="149.9" r="12.2"/>
<circle class="st0" cx="340.7" cy="149.9" r="12.2"/>
<circle class="st0" cx="439.5" cy="181.1" r="12.2"/>
<circle class="st0" cx="471.9" cy="181.1" r="12.2"/>
<circle class="st0" cx="504.2" cy="181.1" r="12.2"/>
<circle class="st0" cx="566" cy="181.1" r="12.2"/>
<circle class="st0" cx="340.2" cy="181.1" r="12.2"/>
<circle class="st0" cx="439.5" cy="212.2" r="12.2"/>
<circle class="st0" cx="471.9" cy="212.2" r="12.2"/>
<circle class="st0" cx="504.2" cy="212.2" r="12.2"/>
<circle class="st0" cx="566" cy="212.2" r="12.2"/>
<circle class="st0" cx="340.2" cy="212.2" r="12.2"/>
<circle class="st0" cx="439.5" cy="243.4" r="12.2"/>
<circle class="st0" cx="471.9" cy="243.4" r="12.2"/>
<circle class="st0" cx="504.2" cy="243.4" r="12.2"/>
<circle class="st0" cx="566" cy="243.4" r="12.2"/>
<circle class="st0" cx="340.2" cy="243.4" r="12.2"/>
<circle class="st0" cx="439.1" cy="274.5" r="12.2"/>
<circle class="st0" cx="471.4" cy="274.5" r="12.2"/>
<circle class="st0" cx="503.8" cy="274.5" r="12.2"/>
<circle class="st0" cx="565.5" cy="274.5" r="12.2"/>
<circle class="st0" cx="339.8" cy="274.5" r="12.2"/>
<g id="filmCircs">
	<circle class="st1" cx="113.4" cy="87.6" r="12.2"/>
	<circle class="st1" cx="145.7" cy="87.6" r="12.2"/>
	<circle class="st1" cx="178.1" cy="87.6" r="12.2"/>
	<circle class="st1" cx="210.4" cy="87.6" r="12.2"/>
	<circle class="st1" cx="242.7" cy="87.6" r="12.2"/>
	<circle class="st1" cx="275.1" cy="87.6" r="12.2"/>
	<circle class="st1" cx="307.4" cy="87.6" r="12.2"/>
	<circle class="st1" cx="536.2" cy="87.6" r="12.2"/>
	<circle class="st1" cx="373.5" cy="87.6" r="12.2"/>
	<circle class="st1" cx="405.9" cy="87.6" r="12.2"/>
	<circle class="st1" cx="438.2" cy="87.6" r="12.2"/>
	<circle class="st1" cx="470.5" cy="87.6" r="12.2"/>
	<circle class="st1" cx="502.9" cy="87.6" r="12.2"/>
	<circle class="st1" cx="565.1" cy="87.6" r="12.2"/>
	<circle class="st1" cx="340.2" cy="87.6" r="12.2"/>
	<circle class="st1" cx="113" cy="118.8" r="12.2"/>
</g>
<g id="netflixCircs">
	<circle class="st2" cx="113.4" cy="87.6" r="12.2"/>
	<circle class="st2" cx="145.7" cy="87.6" r="12.2"/>
	<circle class="st2" cx="178.1" cy="87.6" r="12.2"/>
	<circle class="st2" cx="210.4" cy="87.6" r="12.2"/>
	<circle class="st2" cx="242.7" cy="87.6" r="12.2"/>
	<circle class="st2" cx="275.1" cy="87.6" r="12.2"/>
	<circle class="st2" cx="307.4" cy="87.6" r="12.2"/>
	<circle class="st2" cx="373.5" cy="87.6" r="12.2"/>
	<circle class="st2" cx="405.9" cy="87.6" r="12.2"/>
	<circle class="st2" cx="340.2" cy="87.6" r="12.2"/>
</g>
<g id="cookingCircs">
	<circle class="st3" cx="113.4" cy="87.6" r="12.2"/>
	<circle class="st3" cx="145.7" cy="87.6" r="12.2"/>
	<circle class="st3" cx="178.1" cy="87.6" r="12.2"/>
	<circle class="st3" cx="210.4" cy="87.6" r="12.2"/>
</g>
</svg>
