<?xml version="1.0" encoding="utf-8"?>
<!-- Generator: Adobe Illustrator 26.2.1, SVG Export Plug-In . SVG Version: 6.00 Build 0)  -->
<svg version="1.1" id="Layer_1" xmlns="http://www.w3.org/2000/svg" xmlns:xlink="http://www.w3.org/1999/xlink" x="0px" y="0px"
	 viewBox="0 0 360 360" style="enable-background:new 0 0 360 360;" xml:space="preserve">
<style type="text/css">
	
		.st0{clip-path:url(#SVGID_00000049937114374420450870000011134931868661224632_);fill-rule:evenodd;clip-rule:evenodd;fill:#333D98;}
	
		.st1{clip-path:url(#SVGID_00000031922385859817264920000015212355631632748947_);fill-rule:evenodd;clip-rule:evenodd;fill:#F2F2F2;}
	
		.st2{clip-path:url(#SVGID_00000183966570671954553780000015464630989099224963_);fill-rule:evenodd;clip-rule:evenodd;fill:#DEB54A;}
	
		.st3{clip-path:url(#SVGID_00000118393058257239809370000016751507952200321172_);fill-rule:evenodd;clip-rule:evenodd;fill:#F2F2F2;}
	
		.st4{clip-path:url(#SVGID_00000093144330118780802070000009428492196283099790_);fill-rule:evenodd;clip-rule:evenodd;fill:#EE575A;}
	
		.st5{clip-path:url(#SVGID_00000079486213089568065060000016435059535193875638_);fill-rule:evenodd;clip-rule:evenodd;fill:#F2F2F2;}
</style>
<g id="filmChart">
	<g>
		<g>
			<g>
				<defs>
					<rect id="SVGID_1_" x="-40.5" y="50" width="441" height="260"/>
				</defs>
				<clipPath id="SVGID_00000004544293074757290340000017808672724081142912_">
					<use xlink:href="#SVGID_1_"  style="overflow:visible;"/>
				</clipPath>
				
					<path style="clip-path:url(#SVGID_00000004544293074757290340000017808672724081142912_);fill-rule:evenodd;clip-rule:evenodd;fill:#333D98;" d="
					M180.5,63.5c39.7,0,77,18.7,99.8,50l-24.9,16.8c-17.1-23.5-45-37.5-74.8-37.5L180.5,63.5L180.5,63.5z"/>
			</g>
		</g>
	</g>
	<g>
		<g>
			<g>
				<defs>
					<rect id="SVGID_00000103984363146091425340000009530279846852380800_" x="-40.5" y="50" width="441" height="260"/>
				</defs>
				<clipPath id="SVGID_00000035526712515253487090000000280626730952665497_">
					<use xlink:href="#SVGID_00000103984363146091425340000009530279846852380800_"  style="overflow:visible;"/>
				</clipPath>
				
					<path style="clip-path:url(#SVGID_00000035526712515253487090000000280626730952665497_);fill-rule:evenodd;clip-rule:evenodd;fill:#F2F2F2;" d="
					M280.3,113.6c38.6,53.1,25.2,126.2-29.9,163.4s-131.1,24.3-169.7-28.8s-25.2-126.3,30-163.5c20.5-13.8,44.9-21.2,69.9-21.2v29.3
					c-50.5,0-91.4,39.4-91.4,88s40.9,88,91.4,88s91.4-39.4,91.4-88c0-18.1-5.8-35.7-16.5-50.5L280.3,113.6z"/>
			</g>
		</g>
	</g>
</g>
<g id="cookingChart">
	<g>
		<g>
			<g>
				<defs>
					<rect id="SVGID_00000179620566518351862730000002778059300615034299_" x="-40.5" y="50" width="441" height="260"/>
				</defs>
				<clipPath id="SVGID_00000120544685688415013140000006623026709097277091_">
					<use xlink:href="#SVGID_00000179620566518351862730000002778059300615034299_"  style="overflow:visible;"/>
				</clipPath>
				
					<path style="clip-path:url(#SVGID_00000120544685688415013140000006623026709097277091_);fill-rule:evenodd;clip-rule:evenodd;fill:#DEB54A;" d="
					M180.5,64.4c54.3,0,101.2,37.8,113,90.9l-28.2,6.3c-8.8-39.8-44-68.2-84.7-68.2L180.5,64.4L180.5,64.4z"/>
			</g>
		</g>
	</g>
	<g>
		<g>
			<g>
				<defs>
					<rect id="SVGID_00000116199578069505857460000009306596812618591125_" x="-40.5" y="50" width="441" height="260"/>
				</defs>
				<clipPath id="SVGID_00000041291148618748403410000011818523992992938929_">
					<use xlink:href="#SVGID_00000116199578069505857460000009306596812618591125_"  style="overflow:visible;"/>
				</clipPath>
				
					<path style="clip-path:url(#SVGID_00000041291148618748403410000011818523992992938929_);fill-rule:evenodd;clip-rule:evenodd;fill:#F2F2F2;" d="
					M293.5,155.3c13.8,62.5-25.5,124.5-87.9,138.4c-62.4,13.9-124.2-25.6-138-88.1S93.1,81.1,155.5,67.2c8.2-1.8,16.6-2.7,25.1-2.7
					v29c-47.9,0-86.8,39-86.8,87s38.9,87,86.8,87s86.8-39,86.8-87c0-6.3-0.7-12.6-2.1-18.8L293.5,155.3z"/>
			</g>
		</g>
	</g>
</g>
<g id="netflixChart">
	<g>
		<g>
			<g>
				<defs>
					<rect id="SVGID_00000170267384108529823370000010191506653036681659_" x="-40.5" y="50" width="441" height="260"/>
				</defs>
				<clipPath id="SVGID_00000036246566239389752270000009251589894758701734_">
					<use xlink:href="#SVGID_00000170267384108529823370000010191506653036681659_"  style="overflow:visible;"/>
				</clipPath>
				
					<path style="clip-path:url(#SVGID_00000036246566239389752270000009251589894758701734_);fill-rule:evenodd;clip-rule:evenodd;fill:#EE575A;" d="
					M180.7,63.9c44.6,0,85.4,25.3,105.1,65.2L259.5,142c-14.8-30-45.4-48.9-78.8-48.9V63.9z"/>
			</g>
		</g>
	</g>
	<g>
		<g>
			<g>
				<defs>
					<rect id="SVGID_00000156570241443759465560000012465932991815916199_" x="-40.5" y="50" width="441" height="260"/>
				</defs>
				<clipPath id="SVGID_00000063613589355949832470000002216019054412248225_">
					<use xlink:href="#SVGID_00000156570241443759465560000012465932991815916199_"  style="overflow:visible;"/>
				</clipPath>
				
					<path style="clip-path:url(#SVGID_00000063613589355949832470000002216019054412248225_);fill-rule:evenodd;clip-rule:evenodd;fill:#F2F2F2;" d="
					M285.8,129.2c28.6,57.9,4.8,128.1-53.3,156.7c-58,28.6-128.3,4.8-156.9-53.2S70.8,104.6,128.9,76c16.1-7.9,33.9-12.1,51.8-12.1
					v29.2c-48.5,0-87.9,39.3-87.9,87.7s39.4,87.7,87.9,87.7s87.9-39.3,87.9-87.7c0-13.5-3.1-26.7-9.1-38.8L285.8,129.2z"/>
			</g>
		</g>
	</g>
</g>
</svg>
